<svg preserveAspectRatio="none" xmlns="http://www.w3.org/2000/svg" xmlns:xlink="http://www.w3.org/1999/xlink" width="296.99981713294983" height="136.0001220703125" version="1.1" viewBox="-4.14 -0.5 296.99981713294983 136.0001220703125"><defs><path fill-rule="nonzero" id="path-159" d="M271.99987,127.00012h-91.05065c-0.50192,-5.05314 -4.76414,-8.99998 -9.94929,-8.99998c-5.18515,0 -9.44758,3.94684 -9.9495,8.99998h-145.05049c-8.83654,0 -15.99994,-7.16354 -15.99994,-16.0001v-95.00004c0,-8.83656 7.1634,-15.99998 15.99994,-15.99998h144.99984v0.00011c0,5.5228 4.47715,9.99996 10.00015,9.99996c5.52279,0 9.99994,-4.47716 9.99994,-9.99996v-0.00011h91c8.83675,0 15.99994,7.16343 15.99994,15.99998v95.00004c0,8.83656 -7.1632,16.0001 -15.99994,16.0001z"></path><linearGradient id="linearGradient-160" gradientUnits="userSpaceOnUse" x1="0" y1="63.50006103515625" x2="287.99981713294983" y2="63.50006103515625"><stop offset="0%" stop-color="{{colors[0]}}"></stop><stop offset="100%" stop-color="{{colors[1]}}"></stop></linearGradient><filter id="shadow-161" x="-1.9583345767877336%" y="-1.5748016359328518%" width="201.95833457678773%" height="201.57480163593283%"><feOffset dx="0.36" dy="4"></feOffset><feMorphology radius="0.5" operator="dilate"></feMorphology><feGaussianBlur filterUnits="userSpaceOnUse" stdDeviation="3"></feGaussianBlur><feComposite in2="SourceAlpha" operator="out"></feComposite></filter></defs><g><use xlink:href="#path-159" fill="{{colors[2]}}" filter="url(#shadow-161)"></use><use xlink:href="#path-159" fill="{{colors[3]}}"></use><use fill="url(#linearGradient-160)" xlink:href="#path-159"></use></g></svg>